<?xml version="1.0" encoding="utf-8"?>
<!-- Generator: Adobe Illustrator 24.2.3, SVG Export Plug-In . SVG Version: 6.00 Build 0)  -->
<svg version="1.1" xmlns="http://www.w3.org/2000/svg" xmlns:xlink="http://www.w3.org/1999/xlink" x="0px" y="0px"
	 viewBox="0 0 1100 1100" style="enable-background:new 0 0 1100 1100;" xml:space="preserve">
<style type="text/css">
	.st0{display:none;}
	.st1{display:inline;fill:#0034E9;stroke:#008FFF;stroke-miterlimit:10;}
	.st2{display:inline;fill:none;stroke:#000000;stroke-width:7;stroke-miterlimit:10;}
	.st3{display:inline;fill:none;stroke:#0034E9;stroke-width:80;stroke-miterlimit:10;}
	.st4{font-family:'MyriadPro-Regular';}
	.st5{font-size:399px;}
	.st6{display:inline;fill:#FFFFFF;stroke:#000000;stroke-width:80;stroke-miterlimit:10;}
	.st7{display:inline;}
	.st8{display:none;stroke:#008FFF;stroke-width:14;stroke-miterlimit:10;}
	.st9{font-family:'NHaasGroteskTXPro-55Rg';}
	.st10{font-size:454.8911px;}
	.st11{display:none;fill:none;stroke:#748CFF;stroke-width:80;stroke-miterlimit:10;}
	.st12{display:none;fill:#748CFF;}
	.st13{enable-background:new    ;}
	.st14{fill:#5136B4;}
	.st15{fill:#3B2782;}
	.st16{fill:#828282;}
	.st17{clip-path:url(#SVGID_2_);enable-background:new    ;}
	.st18{fill:#3C2885;}
	.st19{clip-path:url(#SVGID_4_);enable-background:new    ;}
	.st20{fill:#858585;}
	.st21{clip-path:url(#SVGID_6_);enable-background:new    ;}
	.st22{clip-path:url(#SVGID_8_);enable-background:new    ;}
	.st23{fill:#A8A8A8;}
	.st24{fill:#A3A3A3;}
	.st25{fill:#9E9E9E;}
	.st26{clip-path:url(#SVGID_10_);enable-background:new    ;}
	.st27{fill:#3E2A8A;}
	.st28{fill:#402B8F;}
	.st29{fill:#432D94;}
	.st30{fill:#452E99;}
	.st31{fill:#47309E;}
	.st32{fill:#4A31A3;}
	.st33{fill:#4C33A8;}
	.st34{clip-path:url(#SVGID_12_);enable-background:new    ;}
	.st35{fill:#909090;}
	.st36{clip-path:url(#SVGID_14_);enable-background:new    ;}
	.st37{fill:#8A8A8A;}
	.st38{fill:#8F8F8F;}
	.st39{fill:#949494;}
	.st40{fill:#999999;}
	.st41{fill:#B4B4B4;}
	.st42{clip-path:url(#SVGID_16_);enable-background:new    ;}
	.st43{fill:#DFDFDF;}
	.st44{fill:#6443DF;}
	.st45{clip-path:url(#SVGID_18_);enable-background:new    ;}
	.st46{fill:#5036B2;}
	.st47{clip-path:url(#SVGID_20_);enable-background:new    ;}
	.st48{clip-path:url(#SVGID_22_);enable-background:new    ;}
	.st49{clip-path:url(#SVGID_24_);enable-background:new    ;}
	.st50{clip-path:url(#SVGID_26_);enable-background:new    ;}
	.st51{clip-path:url(#SVGID_28_);enable-background:new    ;}
	.st52{fill:#8E8E8E;}
	.st53{clip-path:url(#SVGID_30_);enable-background:new    ;}
	.st54{clip-path:url(#SVGID_32_);enable-background:new    ;}
	.st55{clip-path:url(#SVGID_34_);enable-background:new    ;}
	.st56{display:inline;fill:#FFFFFF;stroke:#000000;stroke-width:11;stroke-miterlimit:10;}
	.st57{display:inline;stroke:#000000;stroke-width:10;stroke-miterlimit:10;}
	.st58{font-family:'BodoniSvtyTwoITCTT-Book';}
	.st59{font-size:942px;}
</style>
<g id="Layer_1" class="st0">
	<path class="st1" d="M87.3,198.9h68.6c6.6,0,12,5.4,12,12v569.6c0,6.6-5.4,12-12,12H87.3c-6.6,0-12-5.4-12-12V210.9
		C75.3,204.3,80.7,198.9,87.3,198.9z"/>
	<line class="st2" x1="142.5" y1="297.1" x2="142.5" y2="297.1"/>
	<path class="st3" d="M125.6,393.9c0.2-85.6,122.4-154.7,273.3-154.4"/>
	<text transform="matrix(0.7071 -0.7071 0.7071 0.7071 896.8912 434.8557)" class="st4 st5">n</text>
	<path d="M465.7,198.9h68.6c6.6,0,12,5.4,12,12v569.6c0,6.6-5.4,12-12,12h-68.6c-6.6,0-12-5.4-12-12V210.9
		C453.7,204.3,459.1,198.9,465.7,198.9z"/>
	<text transform="matrix(0.7071 -0.7071 0.7071 0.7071 771.8337 549.998)" class="st4 st5">r</text>
	<path class="st6" d="M646.5,394.4c0.2-85.6-110.5-155.1-247.5-155.4"/>
	<path class="st7" d="M618.3,379.5h56.3c6.6,0,12,5.4,12,12v389c0,6.6-5.4,12-12,12h-56.3c-6.6,0-12-5.4-12-12v-389
		C606.3,384.9,611.7,379.5,618.3,379.5z"/>
</g>
<g id="Layer_3" class="st0">
</g>
<g id="Layer_4">
	<text transform="matrix(1 0 0 1 1217.8936 -661.2983)" class="st0 st9 st5">Lorem ipsum</text>
	<text transform="matrix(1 0 0 1 340.6495 591.7157)" class="st8 st9 st5">n</text>
	<text transform="matrix(1.1149 0 0 1 328.6783 599.9707)" class="st0 st9 st10">r</text>
</g>
<g id="Layer_5">
	<path class="st11" d="M227.6,392.7c-3.5-79.5,108.2-148.8,249.8-155"/>
	<path class="st12" d="M265.5,598.5h-75.9c-6.6,0-12-5.4-12-12v-376c0-6.6,5.4-12,12-12h75.9c6.6,0,12,5.4,12,12v376
		C277.5,593.1,272.1,598.5,265.5,598.5z"/>
	<g>
		<g>
			<g class="st13">
				<g>
					<polygon class="st14" points="757.7,887.9 646,827.1 756.1,811.6 867.8,872.4 					"/>
				</g>
				<g>
					<polygon class="st15" points="867.8,872.4 756.1,811.6 756.9,385.5 868.6,446.2 					"/>
				</g>
				<g>
					<polygon class="st16" points="757.7,887.9 646,827.1 646.8,416.8 758.5,477.6 					"/>
				</g>
				<g>
					<polygon class="st15" points="747,900.9 635.3,840.2 636.1,418.3 747.8,479.1 					"/>
				</g>
				<g class="st13">
					<defs>
						<path id="SVGID_1_" class="st13" d="M667.5,181l111.7,60.8c27.1,14.7,48.6,38.1,64,69.6c17,34.7,25.5,80.1,25.4,134.9
							l-111.7-60.8c0.1-54.8-8.5-100.2-25.4-134.9C716,219.1,694.5,195.7,667.5,181z"/>
					</defs>
					<clipPath id="SVGID_2_">
						<use xlink:href="#SVGID_1_"  style="overflow:visible;"/>
					</clipPath>
					<g class="st17">
						<path class="st18" d="M868.6,446.2l-111.7-60.8c0.1-54.8-8.5-100.2-25.4-134.9c-15.4-31.5-37-54.9-64-69.6l111.7,60.8
							c27.1,14.7,48.6,38.1,64,69.6C860.1,346,868.7,391.4,868.6,446.2"/>
					</g>
				</g>
				<g class="st13">
					<defs>
						<path id="SVGID_3_" class="st13" d="M610.5,302.5c-7.2-7.6-15.3-13.8-24.2-18.6L698,344.6c8.9,4.8,16.9,11,24.2,18.6
							c24.2,25.4,36.4,63.9,36.3,114.3l-111.7-60.8C646.9,366.4,634.7,327.9,610.5,302.5z"/>
					</defs>
					<clipPath id="SVGID_4_">
						<use xlink:href="#SVGID_3_"  style="overflow:visible;"/>
					</clipPath>
					<g class="st19">
						<path class="st20" d="M758.5,477.6l-111.7-60.8c0.1-50.4-12.1-88.9-36.3-114.3c-7.2-7.6-15.3-13.8-24.2-18.7L698,344.6
							c8.9,4.8,17,11.1,24.2,18.7C746.4,388.7,758.6,427.2,758.5,477.6"/>
					</g>
				</g>
				<g class="st13">
					<defs>
						<path id="SVGID_5_" class="st13" d="M580.6,294.5l111.7,60.8c8.1,4.4,15.4,10,21.9,16.9c22.4,23.5,33.6,59.5,33.6,107
							l-111.7-60.8c0.1-47.5-11.2-83.5-33.6-107C596,304.5,588.7,298.8,580.6,294.5z"/>
					</defs>
					<clipPath id="SVGID_6_">
						<use xlink:href="#SVGID_5_"  style="overflow:visible;"/>
					</clipPath>
					<g class="st21">
						<path class="st18" d="M747.8,479.1l-111.7-60.8c0.1-47.5-11.2-83.5-33.6-107c-6.5-6.9-13.9-12.5-21.9-16.9l111.7,60.8
							c8.1,4.4,15.4,10,21.9,16.9C736.6,395.6,747.9,431.6,747.8,479.1"/>
					</g>
				</g>
				<g>
					<polygon class="st14" points="360.6,943.7 249,882.9 359.1,867.5 470.7,928.2 					"/>
				</g>
				<g class="st13">
					<defs>
						<path id="SVGID_7_" class="st13" d="M667.5,181l111.7,60.8c-2.5-1.3-5-2.6-7.6-3.8c-30.8-14.4-67.3-18.8-108.4-13l-111.7-60.8
							c41.1-5.8,77.6-1.4,108.4,13C662.5,178.4,665,179.6,667.5,181z"/>
					</defs>
					<clipPath id="SVGID_8_">
						<use xlink:href="#SVGID_7_"  style="overflow:visible;"/>
					</clipPath>
					<g class="st22">
						<path class="st23" d="M663.2,224.9l-111.7-60.8c29.7-4.2,56.9-3.1,81.3,3.3l111.7,60.8C720.1,221.9,692.8,220.8,663.2,224.9"
							/>
						<path class="st24" d="M744.5,228.2l-111.7-60.8c9.5,2.5,18.5,5.7,27.1,9.7c0.8,0.4,1.7,0.8,2.5,1.2l111.7,60.8
							c-0.8-0.4-1.7-0.8-2.5-1.2C763,233.9,753.9,230.7,744.5,228.2"/>
						<path class="st25" d="M774.1,239.1l-111.7-60.8c1.7,0.8,3.4,1.7,5.1,2.6l111.7,60.8C777.5,240.8,775.8,240,774.1,239.1"/>
					</g>
				</g>
				<g>
					<polygon class="st15" points="470.7,928.2 359.1,867.5 359.8,470 471.5,530.8 					"/>
				</g>
				<g class="st13">
					<defs>
						<path id="SVGID_9_" class="st13" d="M586.3,283.9L698,344.6c-21-11.4-46.5-15.1-76.2-10.9c-28.8,4.1-54.8,14.6-77.2,31.5
							C522,382.1,504,405,491.1,433.2c-12.9,28-19.5,60.9-19.6,97.6L359.8,470c0.1-36.7,6.7-69.6,19.6-97.6c13-28.2,31-51,53.5-67.9
							c22.4-16.9,48.4-27.5,77.2-31.5C539.8,268.8,565.3,272.4,586.3,283.9z"/>
					</defs>
					<clipPath id="SVGID_10_">
						<use xlink:href="#SVGID_9_"  style="overflow:visible;"/>
					</clipPath>
					<g class="st26">
						<path class="st18" d="M471.5,530.8L359.8,470c0.1-30.8,4.7-58.8,13.8-83.6l111.7,60.8C476.2,471.9,471.5,500,471.5,530.8"/>
						<path class="st27" d="M485.3,447.1l-111.7-60.8c1.8-4.8,3.7-9.4,5.8-14c1.8-3.9,3.7-7.7,5.7-11.3l111.7,60.8
							c-2,3.7-3.9,7.5-5.7,11.3C489,437.7,487,442.3,485.3,447.1"/>
						<path class="st28" d="M496.7,421.8L385,361.1c3.6-6.7,7.5-13,11.7-19l111.7,60.8C504.2,408.8,500.3,415.1,496.7,421.8"/>
						<path class="st29" d="M508.4,402.8L396.7,342c3.8-5.4,7.8-10.4,12-15.2l111.7,60.8C516.2,392.4,512.2,397.4,508.4,402.8"/>
						<path class="st30" d="M520.4,387.6l-111.7-60.8c4.2-4.7,8.6-9.2,13.2-13.4l111.7,60.8C529,378.4,524.6,382.8,520.4,387.6"/>
						<path class="st31" d="M533.6,374.2l-111.7-60.8c3.5-3.2,7.2-6.2,10.9-9c1.7-1.3,3.5-2.6,5.3-3.8l111.7,60.8
							c-1.8,1.2-3.5,2.5-5.3,3.8C540.8,368,537.1,371,533.6,374.2"/>
						<path class="st32" d="M549.8,361.4l-111.7-60.8c7.3-5.1,15-9.5,23-13.3l111.7,60.8C564.8,351.9,557.2,356.3,549.8,361.4"/>
						<path class="st33" d="M572.8,348.1l-111.7-60.8c15.2-7.2,31.5-12,48.9-14.4c19.8-2.8,37.7-2.1,53.6,2l111.7,60.8
							c-15.9-4.1-33.8-4.8-53.6-2C604.4,336.1,588,341,572.8,348.1"/>
						<path class="st32" d="M675.4,335.7L563.7,275c6.7,1.7,13.1,4.1,19.1,7.1l111.7,60.8C688.5,339.8,682.1,337.5,675.4,335.7"/>
						<path class="st31" d="M694.5,342.8L582.8,282c1.2,0.6,2.3,1.2,3.5,1.8L698,344.6C696.8,344,695.7,343.4,694.5,342.8"/>
					</g>
				</g>
				<g class="st13">
					<defs>
						<path id="SVGID_11_" class="st13" d="M450,202.8c27.7-20.1,61.8-33.1,101.4-38.6l111.7,60.8c-39.7,5.6-73.7,18.6-101.4,38.6
							C524.5,243.3,487.3,223.1,450,202.8z"/>
					</defs>
					<clipPath id="SVGID_12_">
						<use xlink:href="#SVGID_11_"  style="overflow:visible;"/>
					</clipPath>
					<g class="st34">
						<path class="st25" d="M545.6,276.7l-111.7-60.8c1.6-1.4,3.1-2.8,4.7-4.1c4.7-4,9.6-7.8,14.7-11.3l111.7,60.8
							c-5.1,3.5-10,7.3-14.7,11.3C548.7,273.9,547.1,275.3,545.6,276.7"/>
						<path class="st24" d="M565.1,261.2l-111.7-60.8c8.7-6,18-11.4,27.9-16L593,245.2C583.1,249.8,573.8,255.2,565.1,261.2"/>
						<path class="st23" d="M593,245.2l-111.7-60.8c20.9-9.8,44.3-16.6,70.2-20.2l111.7,60.8C637.3,228.6,613.8,235.3,593,245.2"/>
					</g>
				</g>
				<g>
					<polygon class="st35" points="483.5,369.5 371.8,308.8 373.2,305.1 484.9,365.8 					"/>
				</g>
				<g class="st13">
					<defs>
						<path id="SVGID_13_" class="st13" d="M438.6,211.8c3.7-3.1,7.5-6.1,11.4-9c37.2,20.3,74.5,40.5,111.7,60.8
							c-3.9,2.9-7.7,5.8-11.4,9c-29.6,25.2-51.6,56.6-65.4,93.3l-111.7-60.8C387,268.4,409,237,438.6,211.8z"/>
					</defs>
					<clipPath id="SVGID_14_">
						<use xlink:href="#SVGID_13_"  style="overflow:visible;"/>
					</clipPath>
					<g class="st36">
						<path class="st37" d="M484.9,365.8l-111.7-60.8c3.7-9.8,8-19.2,12.8-28.2l111.7,60.8C492.8,346.6,488.6,356,484.9,365.8"/>
						<path class="st38" d="M497.7,337.6L386,276.8c4.2-7.9,8.9-15.4,14-22.7l111.7,60.8C506.6,322.2,501.9,329.7,497.7,337.6"/>
						<path class="st39" d="M511.7,314.9L400,254.2c4.8-6.8,9.9-13.4,15.5-19.6l111.7,60.8C521.6,301.6,516.5,308.1,511.7,314.9"/>
						<path class="st40" d="M527.2,295.3l-111.7-60.8c5.7-6.5,11.9-12.7,18.4-18.6l111.7,60.8C539,282.6,532.9,288.8,527.2,295.3"/>
						<path class="st25" d="M545.6,276.7l-111.7-60.8c1.6-1.4,3.1-2.8,4.7-4.1c4.7-4,9.6-7.8,14.7-11.3l111.7,60.8
							c-5.1,3.5-10,7.3-14.7,11.3C548.7,273.9,547.1,275.3,545.6,276.7"/>
					</g>
				</g>
				<g>
					<polygon class="st41" points="466.9,371.9 355.2,311.1 371.8,308.8 483.5,369.5 					"/>
				</g>
				<g class="st13">
					<defs>
						<path id="SVGID_15_" class="st13" d="M673.2,170.5l111.7,60.8c-2.6-1.4-5.3-2.8-8.1-4.1c-32.4-15.1-70.6-19.8-113.6-13.7
							c-47.4,6.7-87.4,23.6-118.7,50.4c-29.6,25.2-52,56.3-66.8,92.3L366,295.4c14.8-36.1,37.2-67.1,66.8-92.3
							c31.4-26.8,71.3-43.7,118.7-50.4c43-6,81.2-1.4,113.6,13.7C667.9,167.7,670.6,169,673.2,170.5z"/>
					</defs>
					<clipPath id="SVGID_16_">
						<use xlink:href="#SVGID_15_"  style="overflow:visible;"/>
					</clipPath>
					<g class="st42">
						<path class="st27" d="M477.6,356.1L366,295.4c3.3-8.1,7-15.9,11-23.4l111.7,60.8C484.6,340.2,480.9,348.1,477.6,356.1"/>
						<path class="st28" d="M488.7,332.7L377,271.9c4.5-8.3,9.4-16.3,14.8-24l111.7,60.8C498.1,316.4,493.2,324.4,488.7,332.7"/>
						<path class="st29" d="M503.5,308.7l-111.7-60.8c5.1-7.2,10.5-14.2,16.4-20.8l111.7,60.8C514,294.5,508.6,301.4,503.5,308.7"/>
						<path class="st30" d="M519.9,287.9l-111.7-60.8c6.1-6.9,12.6-13.5,19.5-19.7l111.7,60.8C532.5,274.4,526,281,519.9,287.9"/>
						<path class="st31" d="M539.4,268.2l-111.7-60.8c1.6-1.5,3.3-2.9,5-4.4c5-4.3,10.3-8.4,15.8-12.1l111.7,60.8
							c-5.5,3.8-10.7,7.8-15.8,12.1C542.7,265.2,541.1,266.7,539.4,268.2"/>
						<path class="st32" d="M560.2,251.6l-111.7-60.8c9.3-6.4,19.1-12.1,29.6-17l111.7,60.8C579.4,239.6,569.5,245.2,560.2,251.6"/>
						<path class="st33" d="M589.8,234.6l-111.7-60.8c21.9-10.3,46.4-17.4,73.3-21.2c30.9-4.3,59.4-3.2,85,3.5l111.7,60.8
							c-25.6-6.6-54.1-7.8-85-3.5C636.3,217.2,611.7,224.3,589.8,234.6"/>
						<path class="st32" d="M748.2,216.9l-111.7-60.8c10,2.6,19.5,6,28.6,10.3c0.9,0.4,1.8,0.8,2.7,1.3l111.7,60.8
							c-0.9-0.4-1.8-0.9-2.7-1.3C767.7,222.9,758.2,219.5,748.2,216.9"/>
						<path class="st31" d="M779.5,228.4l-111.7-60.8c1.8,0.9,3.6,1.8,5.4,2.8l111.7,60.8C783.1,230.2,781.3,229.3,779.5,228.4"/>
					</g>
				</g>
				<g>
					<polygon class="st15" points="466.9,371.9 355.2,311.1 355.4,200.6 467.1,261.3 					"/>
				</g>
				<g>
					<polygon class="st16" points="360.6,943.7 249,882.9 250.2,215.4 361.9,276.1 					"/>
				</g>
				<g>
					<polygon class="st41" points="361.9,276.1 250.2,215.4 355.4,200.6 467.1,261.3 					"/>
				</g>
				<g>
					<path class="st43" d="M663.2,224.9c41.1-5.8,77.6-1.4,108.4,13c30.6,14.3,54.7,39,71.6,73.5c17,34.7,25.5,80.1,25.4,134.9
						l-0.8,426.2l-110.1,15.5l0.8-410.3c0.1-50.4-12.1-88.9-36.3-114.3c-24.3-25.6-58.1-35.5-100.4-29.6
						c-28.8,4.1-54.8,14.7-77.2,31.5c-22.5,16.9-40.5,39.8-53.5,67.9c-12.9,28-19.5,60.9-19.6,97.6l-0.7,397.5l-110.1,15.5
						l1.2-667.6l105.2-14.8l-0.2,110.5l16.5-2.3l1.4-3.7c13.9-36.7,35.9-68,65.4-93.3C579.9,247.3,617.9,231.3,663.2,224.9z"/>
				</g>
				<g>
					<polygon class="st14" points="351.2,266.1 239.5,205.3 366.2,187.5 477.8,248.3 					"/>
				</g>
				<g>
					<polygon class="st15" points="349.9,956.7 238.3,896 239.5,205.3 351.2,266.1 					"/>
				</g>
				<g>
					<path class="st44" d="M852.7,304.9c17.7,36.2,26.6,83.2,26.5,139.8l-0.8,437.7L747,900.9l0.8-421.8
						c0.1-47.5-11.2-83.5-33.6-107c-22.2-23.3-53.3-32.4-92.5-26.9c-27,3.8-51.2,13.6-71.9,29.3c-20.7,15.6-37.3,36.7-49.3,62.7
						c-12.1,26.2-18.3,57.2-18.3,92l-0.8,409l-131.5,18.5l1.3-690.6l126.6-17.8l-0.2,107.8c14.8-36.1,37.2-67.1,66.8-92.3
						c31.4-26.8,71.3-43.7,118.7-50.4c43-6,81.2-1.4,113.6,13.7C809.4,242.3,834.9,268.5,852.7,304.9z M867.8,872.4l0.8-426.2
						c0.1-54.8-8.5-100.2-25.4-134.9c-16.9-34.4-40.9-59.1-71.6-73.5c-30.8-14.4-67.3-18.8-108.4-13c-45.3,6.4-83.3,22.4-112.8,47.6
						c-29.6,25.2-51.6,56.6-65.4,93.3l-1.4,3.7l-16.5,2.3l0.2-110.5l-105.2,14.8l-1.2,667.6l110.1-15.5l0.7-397.5
						c0.1-36.7,6.7-69.6,19.6-97.6c13-28.2,31-51,53.5-67.9c22.4-16.9,48.4-27.5,77.2-31.5c42.3-5.9,76.1,4,100.4,29.6
						c24.2,25.4,36.4,63.9,36.3,114.3l-0.8,410.3L867.8,872.4"/>
				</g>
			</g>
		</g>
	</g>
	<g id="Layer_6">
	</g>
	<g>
		<g>
			<g class="st13">
				<g>
					<polygon class="st14" points="356.1,947.2 244.4,886.5 368.3,869.1 480,929.8 					"/>
				</g>
				<g>
					<polygon class="st15" points="713.2,338 601.6,277.3 601.8,161.5 713.5,222.2 					"/>
				</g>
				<g class="st13">
					<defs>
						<path id="SVGID_17_" class="st13" d="M601.7,161.5C601.8,161.5,601.8,161.5,601.7,161.5l111.7,60.8c0,0,0,0,0,0
							C676.2,202,639,181.7,601.7,161.5z"/>
					</defs>
					<clipPath id="SVGID_18_">
						<use xlink:href="#SVGID_17_"  style="overflow:visible;"/>
					</clipPath>
					<g class="st45">
						<path class="st23" d="M661.5,226.9l-111.7-60.8c8.1-1.1,17.9-2.2,29.3-3.2c9.1-0.8,16.7-1.3,22.6-1.5l111.7,60.8
							c-5.9,0.2-13.5,0.7-22.6,1.5C679.5,224.7,669.6,225.8,661.5,226.9"/>
					</g>
				</g>
				<g>
					<polygon class="st46" points="718.5,212.5 606.8,151.7 610.7,151.7 722.4,212.4 					"/>
				</g>
				<g class="st13">
					<defs>
						<path id="SVGID_19_" class="st13" d="M579.2,162.9c9.1-0.8,16.7-1.3,22.6-1.5c37.2,20.3,74.5,40.5,111.7,60.8
							c-5.9,0.2-13.5,0.7-22.6,1.5c-37.2-20.2-74.3-40.4-111.5-60.6c37.2,20.2,74.3,40.4,111.5,60.6c0,0,0,0-0.1,0
							C653.5,203.4,616.3,183.2,579.2,162.9C579.1,162.9,579.1,162.9,579.2,162.9z"/>
					</defs>
					<clipPath id="SVGID_20_">
						<use xlink:href="#SVGID_19_"  style="overflow:visible;"/>
					</clipPath>
					<g class="st47">
						<path class="st23" d="M661.5,226.9l-111.7-60.8c8.1-1.1,17.9-2.2,29.3-3.2c9.1-0.8,16.7-1.3,22.6-1.5l111.7,60.8
							c-5.9,0.2-13.5,0.7-22.6,1.5C679.5,224.7,669.6,225.8,661.5,226.9"/>
					</g>
				</g>
				<g class="st13">
					<defs>
						<path id="SVGID_21_" class="st13" d="M549.8,166.2c8.1-1.1,17.9-2.2,29.2-3.2c37.2,20.3,74.5,40.5,111.7,60.8
							c-11.3,1-21.2,2.1-29.2,3.2C628,208.7,583.4,184.4,549.8,166.2z"/>
					</defs>
					<clipPath id="SVGID_22_">
						<use xlink:href="#SVGID_21_"  style="overflow:visible;"/>
					</clipPath>
					<g class="st48">
						<path class="st23" d="M661.5,226.9l-111.7-60.8c8.1-1.1,17.9-2.2,29.3-3.2c9.1-0.8,16.7-1.3,22.6-1.5l111.7,60.8
							c-5.9,0.2-13.5,0.7-22.6,1.5C679.5,224.7,669.6,225.8,661.5,226.9"/>
					</g>
				</g>
				<g>
					<polygon class="st15" points="480,929.8 368.3,869.1 369,460.4 480.7,521.2 					"/>
				</g>
				<g class="st13">
					<defs>
						<path id="SVGID_23_" class="st13" d="M480.7,521.2L369,460.4c0.1-30.2,7.5-58.6,22.2-84.4c14.6-25.7,34.7-47.3,59.8-64.2
							c25-16.9,53.8-27.7,85.7-32.2c13.7-1.9,27.6-2.9,41.4-2.9c10.1,0,17.8,0.2,23.4,0.6L713.2,338c-5.6-0.4-13.3-0.6-23.4-0.6
							c-13.8,0-27.7,1-41.4,2.9c-31.9,4.5-60.8,15.3-85.7,32.2c-25,16.9-45.2,38.5-59.8,64.2C488.2,462.6,480.8,491,480.7,521.2z"/>
					</defs>
					<clipPath id="SVGID_24_">
						<use xlink:href="#SVGID_23_"  style="overflow:visible;"/>
					</clipPath>
					<g class="st49">
						<path class="st18" d="M480.7,521.2L369,460.4c0-20.6,3.5-40.3,10.4-59l111.7,60.8C484.2,480.8,480.8,500.6,480.7,521.2"/>
						<path class="st27" d="M491.1,462.2l-111.7-60.8c2.7-7.5,6-14.7,9.8-21.8l111.7,60.8C497.1,447.4,493.8,454.7,491.1,462.2"/>
						<path class="st28" d="M500.9,440.3l-111.7-60.8c0.6-1.2,1.3-2.4,2-3.6c3-5.3,6.2-10.3,9.7-15.3l111.7,60.8
							c-3.4,4.9-6.7,10-9.7,15.3C502.3,437.9,501.6,439.1,500.9,440.3"/>
						<path class="st29" d="M512.6,421.5l-111.7-60.8c4-5.8,8.4-11.3,13-16.5L525.6,405C521,410.2,516.6,415.7,512.6,421.5"/>
						<path class="st30" d="M525.6,405l-111.7-60.8c4.8-5.4,9.9-10.6,15.3-15.5L541,389.5C535.5,394.4,530.4,399.5,525.6,405"/>
						<path class="st31" d="M541,389.5l-111.7-60.8c6.2-5.6,12.8-10.8,19.8-15.7l111.7,60.8C553.8,378.7,547.2,383.9,541,389.5"/>
						<path class="st32" d="M560.8,373.8l-111.7-60.8c0.6-0.4,1.3-0.9,1.9-1.3c8.1-5.5,16.6-10.3,25.5-14.5L588.2,358
							c-8.9,4.2-17.4,9-25.5,14.5C562.1,372.9,561.4,373.4,560.8,373.8"/>
						<path class="st33" d="M588.2,358l-111.7-60.8c18.5-8.7,38.7-14.7,60.3-17.7c13.7-1.9,27.6-2.9,41.4-2.9
							c10.1,0,17.8,0.2,23.4,0.6L713.2,338c-5.6-0.4-13.3-0.6-23.4-0.6c-13.8,0-27.7,1-41.4,2.9C626.9,343.4,606.7,349.3,588.2,358"
							/>
					</g>
				</g>
				<g class="st13">
					<defs>
						<path id="SVGID_25_" class="st13" d="M483.7,186.7c20.6-10.3,42.7-17.2,66.2-20.5l111.7,60.8c-23.4,3.3-45.6,10.2-66.2,20.5
							C558.1,227.2,520.9,206.9,483.7,186.7z"/>
					</defs>
					<clipPath id="SVGID_26_">
						<use xlink:href="#SVGID_25_"  style="overflow:visible;"/>
					</clipPath>
					<g class="st50">
						<path class="st24" d="M569.6,262.7L458,201.9c9.7-6.7,19.8-12.6,30.4-17.5L600,245.2C589.5,250.1,579.4,256,569.6,262.7"/>
						<path class="st23" d="M600,245.2l-111.7-60.8c19.3-9.1,39.8-15.2,61.5-18.2l111.7,60.8C639.8,230,619.3,236.1,600,245.2"/>
					</g>
				</g>
				<g class="st13">
					<defs>
						<path id="SVGID_27_" class="st13" d="M483.7,186.7c37.2,20.3,74.5,40.5,111.7,60.8c-13.6,6.8-26.6,15.2-38.8,25.1
							c-2.9,2.3-5.6,4.7-8.3,7.1c-37.2-20.3-74.5-40.5-111.7-60.8c2.7-2.4,5.5-4.8,8.3-7.1C457.1,201.9,470.1,193.5,483.7,186.7z"/>
					</defs>
					<clipPath id="SVGID_28_">
						<use xlink:href="#SVGID_27_"  style="overflow:visible;"/>
					</clipPath>
					<g class="st51">
						<path class="st25" d="M547.8,280l-111.7-60.8c2.8-2.6,5.8-5,8.8-7.5c4.3-3.4,8.6-6.7,13.1-9.8l111.7,60.8
							c-4.4,3.1-8.8,6.3-13.1,9.8C553.6,274.9,550.6,277.4,547.8,280"/>
						<path class="st24" d="M569.6,262.7L458,201.9c9.7-6.7,19.8-12.6,30.4-17.5L600,245.2C589.5,250.1,579.4,256,569.6,262.7"/>
					</g>
				</g>
				<g>
					<polygon class="st52" points="491.2,368.5 379.5,307.8 380.6,304.5 492.3,365.2 					"/>
				</g>
				<g class="st13">
					<defs>
						<path id="SVGID_29_" class="st13" d="M388.8,283.4c37.2,20.3,74.5,40.5,111.7,60.8c-3.1,6.8-5.8,13.8-8.2,21.1l-111.7-60.8
							C383,297.2,385.7,290.2,388.8,283.4z"/>
					</defs>
					<clipPath id="SVGID_30_">
						<use xlink:href="#SVGID_29_"  style="overflow:visible;"/>
					</clipPath>
					<g class="st53">
						<path class="st20" d="M492.3,365.2l-111.7-60.8c0.8-2.3,1.6-4.7,2.4-7l111.7,60.8C493.9,360.5,493.1,362.9,492.3,365.2"/>
						<path class="st37" d="M494.7,358.3L383,297.5c3.3-8.9,7.1-17.4,11.5-25.6l111.7,60.8C501.8,340.9,498,349.4,494.7,358.3"/>
					</g>
				</g>
				<g class="st13">
					<defs>
						<path id="SVGID_31_" class="st13" d="M436.6,218.8c37.2,20.3,74.5,40.5,111.7,60.8c-20.5,18.4-36.5,40-47.7,64.6
							c-37.2-20.3-74.5-40.5-111.7-60.8C400.1,258.8,416,237.2,436.6,218.8z"/>
					</defs>
					<clipPath id="SVGID_32_">
						<use xlink:href="#SVGID_31_"  style="overflow:visible;"/>
					</clipPath>
					<g class="st54">
						<path class="st37" d="M494.7,358.3L383,297.5c3.3-8.9,7.1-17.4,11.5-25.6l111.7,60.8C501.8,340.9,498,349.4,494.7,358.3"/>
						<path class="st38" d="M506.2,332.7l-111.7-60.8c3.6-6.7,7.6-13.2,11.9-19.4l111.7,60.8C513.8,319.5,509.8,326,506.2,332.7"/>
						<path class="st39" d="M518.1,313.3l-111.7-60.8c4.1-5.9,8.6-11.6,13.4-17l111.7,60.8C526.8,301.8,522.3,307.4,518.1,313.3"/>
						<path class="st40" d="M531.6,296.3l-111.7-60.8c5-5.7,10.5-11.2,16.2-16.4L547.8,280C542,285.2,536.6,290.6,531.6,296.3"/>
						<path class="st25" d="M547.8,280l-111.7-60.8c2.8-2.6,5.8-5,8.8-7.5c4.3-3.4,8.6-6.7,13.1-9.8l111.7,60.8
							c-4.4,3.1-8.8,6.3-13.1,9.8C553.6,274.9,550.6,277.4,547.8,280"/>
					</g>
				</g>
				<g>
					<polygon class="st41" points="476.6,370.6 364.9,309.8 379.5,307.8 491.2,368.5 					"/>
				</g>
				<g class="st13">
					<defs>
						<path id="SVGID_33_" class="st13" d="M485.5,358.6l-111.7-60.8c13.1-37.1,35.4-68.6,66.4-93.6c32.1-25.9,69-41.9,109.6-47.6
							c8.3-1.2,18.1-2.3,29.7-3.3c11.5-1,20.6-1.5,27.2-1.6l111.7,60.8c-6.6,0-15.7,0.6-27.2,1.6c-11.7,1-21.4,2.1-29.7,3.3
							C620.9,223,584,239.1,551.9,265C520.9,290,498.5,321.5,485.5,358.6z"/>
					</defs>
					<clipPath id="SVGID_34_">
						<use xlink:href="#SVGID_33_"  style="overflow:visible;"/>
					</clipPath>
					<g class="st55">
						<path class="st18" d="M485.5,358.6l-111.7-60.8c0.3-1,0.7-1.9,1-2.9l111.7,60.8C486.2,356.7,485.8,357.6,485.5,358.6"/>
						<path class="st27" d="M486.5,355.7l-111.7-60.8c3.5-9.4,7.5-18.4,12.2-27.1l111.7,60.8C494,337.3,490,346.3,486.5,355.7"/>
						<path class="st28" d="M498.7,328.6L387,267.9c3.8-7.1,8-13.9,12.6-20.5l111.7,60.8C506.7,314.7,502.5,321.5,498.7,328.6"/>
						<path class="st29" d="M511.3,308.1l-111.7-60.8c4.4-6.2,9.1-12.2,14.2-18l111.7,60.8C520.4,295.9,515.7,301.9,511.3,308.1"/>
						<path class="st30" d="M525.5,290.1l-111.7-60.8c5.3-6,11-11.8,17.1-17.3l111.7,60.8C536.6,278.3,530.8,284.1,525.5,290.1"/>
						<path class="st31" d="M542.7,272.8L431,212.1c3-2.7,6.1-5.3,9.2-7.9c4.5-3.6,9.1-7,13.7-10.3l111.7,60.8
							c-4.7,3.2-9.2,6.6-13.7,10.3C548.7,267.5,545.6,270.1,542.7,272.8"/>
						<path class="st32" d="M565.6,254.7l-111.7-60.8c10.2-7,20.8-13.2,31.8-18.3l111.7,60.8C586.4,241.5,575.8,247.7,565.6,254.7"
							/>
						<path class="st33" d="M597.4,236.4l-111.7-60.8c20.1-9.5,41.6-15.8,64.1-19c8.3-1.2,18.1-2.3,29.7-3.3
							c11.5-1,20.6-1.5,27.2-1.6l111.7,60.8c-6.6,0-15.7,0.6-27.2,1.6c-11.7,1-21.4,2.1-29.7,3.3C639,220.5,617.5,226.9,597.4,236.4
							"/>
					</g>
				</g>
				<g>
					<polygon class="st15" points="476.6,370.6 364.9,309.8 365.1,202.3 476.8,263 					"/>
				</g>
				<g>
					<path class="st43" d="M661.5,226.9c8.1-1.1,17.9-2.2,29.3-3.2c9.1-0.8,16.7-1.3,22.6-1.5L713.3,338c-5.6-0.4-13.3-0.6-23.4-0.6
						c-13.8,0-27.7,1-41.4,2.9c-31.9,4.5-60.8,15.3-85.7,32.2c-25,16.9-45.2,38.5-59.8,64.2c-14.7,25.8-22.1,54.2-22.2,84.4
						L480,929.8l-123.9,17.4l1.2-667.4L476.8,263l-0.2,107.5l14.7-2.1l1.1-3.3c12.1-36.9,33.7-68.1,64.3-92.7
						C587.3,247.7,622.6,232.4,661.5,226.9z"/>
				</g>
				<g>
					<polygon class="st41" points="357.3,279.8 245.6,219.1 365.1,202.3 476.8,263 					"/>
				</g>
				<g>
					<polygon class="st16" points="356.1,947.2 244.4,886.5 245.6,219.1 357.3,279.8 					"/>
				</g>
				<g>
					<polygon class="st14" points="348.4,271.5 236.8,210.7 374,191.4 485.7,252.2 					"/>
				</g>
				<g>
					<polygon class="st15" points="347.2,958.1 235.5,897.3 236.8,210.7 348.4,271.5 					"/>
				</g>
				<g>
					<path class="st44" d="M718.5,212.5l3.9,0l-0.3,136.5l-5.5-0.8c-5.1-0.7-14.5-1-27.9-1c-13.4,0-26.9,1-40.3,2.8
						c-30.5,4.3-58.1,14.6-81.8,30.6c-23.6,15.9-42.6,36.3-56.3,60.5c-13.7,24.1-20.7,50.6-20.7,78.9l-0.8,418.2l-141.7,19.9
						l1.3-686.6l137.2-19.3l-0.2,106.4c13.1-37.1,35.4-68.6,66.4-93.6c32.1-25.9,69-41.9,109.6-47.6c8.3-1.2,18.1-2.3,29.7-3.3
						C702.8,213,711.9,212.5,718.5,212.5z M713.2,338l0.2-115.8c-5.9,0.2-13.5,0.7-22.6,1.5c-11.4,1-21.2,2.1-29.3,3.2
						c-38.9,5.5-74.3,20.8-105,45.5c-30.5,24.6-52.2,55.8-64.3,92.7l-1.1,3.3l-14.7,2.1l0.2-107.5l-119.4,16.8l-1.2,667.4L480,929.8
						l0.8-408.6c0.1-30.2,7.5-58.6,22.2-84.4c14.6-25.7,34.7-47.3,59.8-64.2c25-16.9,53.8-27.7,85.7-32.2
						c13.7-1.9,27.6-2.9,41.4-2.9C699.9,337.4,707.7,337.6,713.2,338"/>
				</g>
			</g>
		</g>
	</g>
	<g>
		<g class="st0">
			<path class="st56" d="M1067.3,682.5v305.1h-100V473.8h96v83.6h6.4c11.8-27.2,30.4-49.1,55.7-65.6c25.3-16.5,57.3-24.8,95.8-24.8
				c35,0,65.7,7.3,92,21.9c26.3,14.6,46.7,36.3,61.2,65.1c14.5,28.8,21.7,64.3,21.7,106.7v326.8h-100V672.8
				c0-37.2-9.7-66.4-29.1-87.5c-19.4-21.1-46.1-31.6-79.9-31.6c-23.2,0-43.8,5-61.7,15.1c-18,10-32.1,24.7-42.5,44
				C1072.4,632.1,1067.3,655.3,1067.3,682.5z"/>
		</g>
	</g>
	<g>
		<g class="st0">
			<path class="st57" d="M966.8,987.6V477.4h96v81h5.3c9.3-27.5,25.7-49.1,49.3-64.9c23.6-15.8,50.3-23.7,80.2-23.7
				c6.2,0,13.6,0.2,22.1,0.7c8.5,0.4,15.2,1,20.1,1.7v95c-4-1.1-11.1-2.4-21.3-3.8c-10.2-1.4-20.4-2.2-30.6-2.2
				c-23.5,0-44.3,4.9-62.6,14.8c-18.3,9.9-32.7,23.5-43.3,40.9c-10.6,17.4-15.9,37.1-15.9,59.3v311.6H966.8z"/>
		</g>
	</g>
	<text transform="matrix(1 0 0 1 85.9233 873.7109)" class="st0 st58 st59">rn</text>
</g>
<g id="Layer_2">
</g>
</svg>
