<svg xmlns="http://www.w3.org/2000/svg" xmlns:xlink="http://www.w3.org/1999/xlink" viewBox="0 0 828.08 993.3"><defs><style>.cls-1{fill:none;}.cls-2{fill:#fff;stroke:#000;stroke-miterlimit:10;stroke-width:20px;}.cls-3{isolation:isolate;}.cls-4{fill:#633bc5;}.cls-5{fill:#442988;}.cls-6{fill:#6e41db;}.cls-7{fill:#452989;}.cls-8{fill:#6e41dc;}.cls-9{fill:#525289;}.cls-10{fill:#7676c5;}.cls-11{fill:#7272be;}.cls-12{fill:#66a;}.cls-13{fill:#474776;}.cls-14{fill:#dcd1b8;}.cls-15{fill:#c5bba5;}.cls-16{fill:#898273;}.cls-17{fill:#b0b0dc;}.cls-18{fill:#9d9dc5;}.cls-19{fill:#6d6d89;}.cls-20{fill:#dcd1cd;}.cls-21{fill:#c5bbb8;}.cls-22{fill:#898280;}.cls-23{fill:#4647dc;}.cls-24{fill:#3e3fc5;}.cls-25{fill:#2b2c89;}.cls-26{clip-path:url(#clip-path);}.cls-27{fill:#2a2b85;}.cls-28{clip-path:url(#clip-path-2);}.cls-29{fill:#2f3094;}.cls-30{fill:#313199;}.cls-31{fill:#32339e;}.cls-32{fill:#3434a3;}.cls-33{fill:#3536a8;}.cls-34{fill:#3738ad;}.cls-35{fill:#3939b3;}.cls-36{fill:#3a3bb8;}.cls-37{clip-path:url(#clip-path-3);}.cls-38{fill:#2d2e8f;}.cls-39{fill:#2c2c8a;}.cls-40{clip-path:url(#clip-path-4);}.cls-41{clip-path:url(#clip-path-5);}.cls-42{clip-path:url(#clip-path-6);}.cls-43{fill:#27945c;}.cls-44{fill:#28995f;}.cls-45{fill:#2a9e62;}.cls-46{fill:#2ba365;}.cls-47{fill:#2ca868;}.cls-48{fill:#2ead6b;}.cls-49{fill:#2fb36f;}.cls-50{fill:#30b872;}.cls-51{clip-path:url(#clip-path-7);}.cls-52{clip-path:url(#clip-path-8);}.cls-53{clip-path:url(#clip-path-9);}.cls-54{fill:#238552;}.cls-55{clip-path:url(#clip-path-10);}.cls-56{fill:#34c57a;}.cls-57{fill:#248955;}.cls-58{fill:#3adc88;}.cls-59{clip-path:url(#clip-path-11);}.cls-60{fill:#268f58;}.cls-61{fill:#248a55;}.cls-62{clip-path:url(#clip-path-12);}.cls-63{fill:#393939;}.cls-64{fill:#333;}.cls-65{fill:#232323;}.cls-66{fill:#dcdcdc;}.cls-67{fill:#c5c5c5;}.cls-68{fill:#898989;}.cls-69{fill:#c5a9a4;}.cls-70{fill:#887571;}.cls-71{fill:#dbbcb6;}.cls-72{fill:#888;}.cls-73{fill:#dbdbdb;}.cls-74{fill:#5dc536;}.cls-75{clip-path:url(#clip-path-13);}.cls-76{fill:#262626;}.cls-77{fill:#282828;}.cls-78{fill:#292929;}.cls-79{fill:#2a2a2a;}.cls-80{fill:#2c2c2c;}.cls-81{fill:#2d2d2d;}.cls-82{fill:#2e2e2e;}.cls-83{fill:#303030;}.cls-84{clip-path:url(#clip-path-14);}.cls-85{fill:#222;}.cls-86{clip-path:url(#clip-path-15);}.cls-87{fill:#252525;}.cls-88{fill:#242424;}.cls-89{fill:#231944;}.cls-90{fill:#332461;}.cls-91{fill:#39296d;}.cls-92{fill:#391888;}.cls-93{fill:#33167a;}.cls-94{fill:#230f55;}.cls-95{fill:#230f54;}.cls-96{fill:#210e4f;}.cls-97{fill:#2a1265;}.cls-98{fill:#291162;}.cls-99{fill:#411b9b;}</style><clipPath id="clip-path" transform="translate(-538.5 -43.37)"><path class="cls-1" d="M961.94,632.89l0-16.3a.59.59,0,0,0,.35.49l0,16.31A.61.61,0,0,1,961.94,632.89Z"/></clipPath><clipPath id="clip-path-2" transform="translate(-538.5 -43.37)"><path class="cls-1" d="M1130.06,630.1l0,16.31a.57.57,0,0,1-.35.49l0-16.3A.62.62,0,0,0,1130.06,630.1Z"/></clipPath><clipPath id="clip-path-3" transform="translate(-538.5 -43.37)"><path class="cls-1" d="M1058.82,671.8l0,16.3a1.91,1.91,0,0,1-1.71,0l0-16.3A1.91,1.91,0,0,0,1058.82,671.8Z"/></clipPath><clipPath id="clip-path-4" transform="translate(-538.5 -43.37)"><path class="cls-1" d="M971.87,702.61l0,16.3c-20.1-11.6-52.69-11.6-72.65,0l0-16.3C919.19,691,951.77,691,971.87,702.61Z"/></clipPath><clipPath id="clip-path-5" transform="translate(-538.5 -43.37)"><path class="cls-1" d="M1042.53,755.85l0,16.3c0-7.67-5-15.35-15.14-21.19l.05-16.3C1037.5,740.5,1042.55,748.18,1042.53,755.85Z"/></clipPath><clipPath id="clip-path-6" transform="translate(-538.5 -43.37)"><path class="cls-1" d="M1042.48,772.14c0,7.57-5,15.14-14.9,20.9l.05-16.3c9.92-5.77,14.88-13.33,14.9-20.91C1042.51,760.72,1042.49,767.25,1042.48,772.14Z"/></clipPath><clipPath id="clip-path-7" transform="translate(-538.5 -43.37)"><path class="cls-1" d="M792.47,793.16l0-16.31c0-7.57,5-15.13,14.91-20.89l0,16.3C797.45,778,792.49,785.58,792.47,793.16Z"/></clipPath><clipPath id="clip-path-8" transform="translate(-538.5 -43.37)"><path class="cls-1" d="M1064.51,755.91l0,16.3c0,10.82-7.12,21.61-21.29,29.84l0-16.3C1057.39,777.52,1064.48,766.72,1064.51,755.91Z"/></clipPath><clipPath id="clip-path-9" transform="translate(-538.5 -43.37)"><path class="cls-1" d="M792.47,793.16l0-16.31c0,7.67,5,15.35,15.15,21.19l0,16.3C797.5,808.5,792.45,800.82,792.47,793.16Z"/></clipPath><clipPath id="clip-path-10" transform="translate(-538.5 -43.37)"><path class="cls-1" d="M770.48,793.09l0-16.31c0,11,7.18,21.93,21.62,30.27l0,16.3C777.66,815,770.45,804,770.48,793.09Z"/></clipPath><clipPath id="clip-path-11" transform="translate(-538.5 -43.37)"><path class="cls-1" d="M935.82,830.09l-.05,16.3c-20,11.61-52.55,11.61-72.65,0l0-16.31C883.26,841.69,915.86,841.69,935.82,830.09Z"/></clipPath><clipPath id="clip-path-12" transform="translate(-538.5 -43.37)"><path class="cls-1" d="M951.42,839.1l0,16.3c-28.51,16.57-75.06,16.57-103.76,0l0-16.3C876.37,855.67,922.91,855.67,951.42,839.1Z"/></clipPath><clipPath id="clip-path-13" transform="translate(-538.5 -43.37)"><path class="cls-1" d="M844.11,671.16,844,711.91c0,2-1.3,3.94-3.89,5.44l.12-40.75C842.81,675.09,844.11,673.13,844.11,671.16Z"/></clipPath><clipPath id="clip-path-14" transform="translate(-538.5 -43.37)"><path class="cls-1" d="M816.89,711.84l.11-40.76c0,2,1.31,4,4,5.51l-.12,40.76C818.2,715.83,816.88,713.83,816.89,711.84Z"/></clipPath><clipPath id="clip-path-15" transform="translate(-538.5 -43.37)"><path class="cls-1" d="M840,676.7l-.11,40.76c-5.21,3-13.67,3-18.91,0l.11-40.76C826.38,679.73,834.84,679.73,840,676.7Z"/></clipPath></defs><g id="Layer_3" data-name="Layer 3"><path class="cls-2" d="M751,315" transform="translate(-538.5 -43.37)"/><g class="cls-3"><polygon class="cls-4" points="448.69 20.48 450.07 507.13 70.55 726.25 69.17 239.6 448.69 20.48"/><polygon class="cls-5" points="70.55 726.25 35.3 705.77 33.93 219.12 69.17 239.6 70.55 726.25"/><polygon class="cls-6" points="69.17 239.6 33.93 219.12 413.45 0 448.69 20.48 69.17 239.6"/></g><g class="cls-3"><polygon class="cls-7" points="792.84 259.78 791.45 748.07 411.92 528.95 413.31 40.66 792.84 259.78"/><polygon class="cls-4" points="792.84 259.78 828.08 239.31 826.69 727.59 791.45 748.07 792.84 259.78"/><polygon class="cls-8" points="413.31 40.66 448.55 20.18 828.08 239.31 792.84 259.78 413.31 40.66"/></g><path class="cls-9" d="M601,705" transform="translate(-538.5 -43.37)"/><path class="cls-10" d="M1326,723" transform="translate(-538.5 -43.37)"/><g class="cls-3"><polygon class="cls-11" points="518.3 577.53 181.41 773.31 70.75 709.42 407.64 513.64 518.3 577.53"/><polygon class="cls-12" points="518.3 577.53 518.26 593.84 181.37 789.62 181.41 773.31 518.3 577.53"/><polygon class="cls-13" points="181.41 773.31 181.37 789.62 70.7 725.72 70.75 709.42 181.41 773.31"/></g><g class="cls-3"><polygon class="cls-11" points="626.3 639.53 289.41 835.32 178.75 771.42 515.64 575.64 626.3 639.53"/><polygon class="cls-12" points="626.3 639.53 626.26 655.84 289.37 851.62 289.41 835.32 626.3 639.53"/><polygon class="cls-13" points="289.41 835.32 289.37 851.62 178.7 787.73 178.75 771.42 289.41 835.32"/></g><g class="cls-3"><polygon class="cls-11" points="736.3 703.53 399.41 899.31 288.74 835.42 625.64 639.64 736.3 703.53"/><polygon class="cls-12" points="736.3 703.53 736.25 719.84 399.36 915.62 399.41 899.31 736.3 703.53"/><polygon class="cls-13" points="399.41 899.31 399.36 915.62 288.7 851.72 288.74 835.42 399.41 899.31"/></g><g class="cls-3"><polygon class="cls-14" points="508 555.02 436.11 596.8 341.06 541.92 412.94 500.14 508 555.02"/><polygon class="cls-15" points="508 555.02 507.95 571.33 436.06 613.11 436.11 596.8 508 555.02"/><polygon class="cls-16" points="436.11 596.8 436.06 613.11 341.01 558.23 341.06 541.92 436.11 596.8"/></g><g class="cls-3"><polygon class="cls-17" points="564.87 931.53 486.63 976.99 385.19 918.42 463.42 872.96 564.87 931.53"/><polygon class="cls-18" points="564.87 931.53 564.82 947.83 486.59 993.3 486.63 976.99 564.87 931.53"/><polygon class="cls-19" points="486.63 976.99 486.59 993.3 385.14 934.73 385.19 918.42 486.63 976.99"/></g><g class="cls-3"><polygon class="cls-17" points="564.87 920.53 486.64 965.99 385.19 907.42 463.42 861.96 564.87 920.53"/><polygon class="cls-18" points="564.87 920.53 564.82 936.83 486.59 982.29 486.64 965.99 564.87 920.53"/><polygon class="cls-19" points="486.64 965.99 486.59 982.29 385.14 923.72 385.19 907.42 486.64 965.99"/></g><g class="cls-3"><polygon class="cls-17" points="578.87 896.53 500.63 941.99 399.18 883.42 477.42 837.96 578.87 896.53"/><polygon class="cls-18" points="578.87 896.53 578.82 912.83 500.58 958.29 500.63 941.99 578.87 896.53"/><polygon class="cls-19" points="500.63 941.99 500.58 958.29 399.14 899.73 399.18 883.42 500.63 941.99"/></g><g class="cls-3"><polygon class="cls-14" points="591 603.03 519.11 644.81 424.05 589.92 495.94 548.14 591 603.03"/><polygon class="cls-15" points="591 603.03 590.96 619.33 519.07 661.11 519.11 644.81 591 603.03"/><polygon class="cls-16" points="519.11 644.81 519.07 661.11 424 606.23 424.05 589.92 519.11 644.81"/></g><g class="cls-3"><polygon class="cls-17" points="594.86 871.53 516.63 916.99 415.19 858.42 493.42 812.96 594.86 871.53"/><polygon class="cls-18" points="594.86 871.53 594.82 887.83 516.59 933.3 516.63 916.99 594.86 871.53"/><polygon class="cls-19" points="516.63 916.99 516.59 933.3 415.14 874.73 415.19 858.42 516.63 916.99"/></g><g class="cls-3"><polygon class="cls-17" points="609.87 846.53 531.64 891.99 430.19 833.42 508.42 787.96 609.87 846.53"/><polygon class="cls-18" points="609.87 846.53 609.82 862.83 531.59 908.29 531.64 891.99 609.87 846.53"/><polygon class="cls-19" points="531.64 891.99 531.59 908.29 430.14 849.72 430.19 833.42 531.64 891.99"/></g><g class="cls-3"><polygon class="cls-20" points="509.71 540.44 437.82 582.22 341.34 526.51 413.24 484.73 509.71 540.44"/><polygon class="cls-21" points="509.71 540.44 509.67 556.74 437.77 598.52 437.82 582.22 509.71 540.44"/><polygon class="cls-22" points="437.82 582.22 437.77 598.52 341.3 542.82 341.34 526.51 437.82 582.22"/></g><g class="cls-3"><polygon class="cls-23" points="550.71 563.44 478.82 605.21 382.34 549.51 454.23 507.74 550.71 563.44"/><polygon class="cls-24" points="550.71 563.44 550.66 579.74 478.77 621.52 478.82 605.21 550.71 563.44"/><polygon class="cls-25" points="478.82 605.21 478.77 621.52 382.3 565.82 382.34 549.51 478.82 605.21"/></g><g class="cls-3"><g class="cls-3"><g class="cls-26"><g class="cls-3"><path class="cls-27" d="M962.34,617.08l0,16.31a.61.61,0,0,1-.36-.5l0-16.3a.59.59,0,0,0,.35.49" transform="translate(-538.5 -43.37)"/></g></g></g><g class="cls-3"><g class="cls-28"><g class="cls-3"><polyline class="cls-29" points="591.56 586.73 591.52 603.03 591.52 603.05 591.56 586.74 591.56 586.73"/><path class="cls-30" d="M1130.06,630.12l0,16.3v.07l0-16.3a.2.2,0,0,0,0-.07" transform="translate(-538.5 -43.37)"/><path class="cls-31" d="M1130.05,630.19l0,16.3s0,0,0,.07l0-16.31a.14.14,0,0,0,0-.06" transform="translate(-538.5 -43.37)"/><path class="cls-32" d="M1130,630.25l0,16.31,0,.07,0-16.31,0-.07" transform="translate(-538.5 -43.37)"/><path class="cls-33" d="M1130,630.32l0,16.31,0,.07,0-16.3a.35.35,0,0,0,0-.08" transform="translate(-538.5 -43.37)"/><path class="cls-34" d="M1130,630.4l0,16.3a.27.27,0,0,1-.07.08l.05-16.3.07-.08" transform="translate(-538.5 -43.37)"/><path class="cls-35" d="M1129.88,630.48l-.05,16.3-.15.12,0-16.31a.91.91,0,0,0,.16-.11" transform="translate(-538.5 -43.37)"/><path class="cls-36" d="M1129.72,630.59l0,16.31h0l0-16.3h0" transform="translate(-538.5 -43.37)"/></g></g></g><polygon class="cls-24" points="591.21 587.23 591.16 603.53 520.27 644.73 520.32 628.42 591.21 587.23"/><polygon class="cls-25" points="518.61 628.42 518.57 644.73 423.8 590.01 423.85 573.71 518.61 628.42"/><path class="cls-23" d="M1129.71,629.61a.52.52,0,0,1,0,1l-70.89,41.2a1.91,1.91,0,0,1-1.71,0l-94.77-54.72a.52.52,0,0,1,0-1l70.89-41.2a1.88,1.88,0,0,1,1.71,0Z" transform="translate(-538.5 -43.37)"/><g class="cls-3"><g class="cls-37"><g class="cls-3"><path class="cls-36" d="M1058.82,671.8l0,16.3a1.23,1.23,0,0,1-.26.12l0-16.31a1.09,1.09,0,0,0,.27-.11" transform="translate(-538.5 -43.37)"/><path class="cls-35" d="M1058.55,671.91l0,16.31-.23,0,0-16.3a.86.86,0,0,0,.23-.06" transform="translate(-538.5 -43.37)"/><path class="cls-34" d="M1058.32,672l0,16.3-.16,0,.05-16.31.15,0" transform="translate(-538.5 -43.37)"/><path class="cls-33" d="M1058.17,672l-.05,16.31H1058l0-16.3h.13" transform="translate(-538.5 -43.37)"/><path class="cls-32" d="M1058,672l0,16.3h-.12l0-16.31h.13" transform="translate(-538.5 -43.37)"/><path class="cls-31" d="M1057.91,672l0,16.31h-.12l0-16.3h.12" transform="translate(-538.5 -43.37)"/><path class="cls-30" d="M1057.79,672l0,16.3h-.12l0-16.31.11,0" transform="translate(-538.5 -43.37)"/><path class="cls-29" d="M1057.68,672l0,16.31-.12,0,0-16.31.12,0" transform="translate(-538.5 -43.37)"/><path class="cls-38" d="M1057.56,672l0,16.31-.13,0,0-16.3.13,0" transform="translate(-538.5 -43.37)"/><path class="cls-39" d="M1057.43,671.93l0,16.3-.14,0,0-16.31.15,0" transform="translate(-538.5 -43.37)"/><path class="cls-27" d="M1057.28,671.88l0,16.31-.18-.09,0-16.3.17.08" transform="translate(-538.5 -43.37)"/></g></g></g></g><g class="cls-3"><g class="cls-3"><g class="cls-40"><g class="cls-3"><path d="M971.87,702.61l0,16.3a56.61,56.61,0,0,0-7.39-3.54l0-16.3a54,54,0,0,1,7.38,3.54" transform="translate(-538.5 -43.37)"/><path d="M964.49,699.07l0,16.3c-2-.79-4.09-1.49-6.23-2.1l0-16.31a65.1,65.1,0,0,1,6.23,2.11" transform="translate(-538.5 -43.37)"/><path d="M958.26,697l0,16.31c-1.75-.5-3.54-.94-5.35-1.32l0-16.3q2.73.57,5.36,1.31" transform="translate(-538.5 -43.37)"/><path d="M952.9,695.65l0,16.3c-1.68-.34-3.38-.64-5.1-.88l0-16.31c1.72.25,3.42.54,5.1.89" transform="translate(-538.5 -43.37)"/><path d="M947.8,694.76l0,16.31c-1.66-.24-3.33-.42-5-.56l0-16.31c1.68.14,3.35.33,5,.56" transform="translate(-538.5 -43.37)"/><path d="M942.8,694.2l0,16.31c-1.68-.14-3.38-.23-5.07-.27l.05-16.31q2.53.08,5.07.27" transform="translate(-538.5 -43.37)"/><path d="M937.73,693.93l-.05,16.31c-1.76,0-3.52,0-5.28,0l.05-16.3q2.64-.09,5.28,0" transform="translate(-538.5 -43.37)"/><path d="M932.45,694l-.05,16.3c-1.91.07-3.82.19-5.71.38l0-16.3c1.89-.19,3.8-.32,5.71-.38" transform="translate(-538.5 -43.37)"/><path d="M926.74,694.34l0,16.3c-2.21.22-4.41.53-6.56.92l0-16.31q3.24-.59,6.57-.91" transform="translate(-538.5 -43.37)"/><path d="M920.17,695.25l0,16.31A74,74,0,0,0,910.4,714l.05-16.31a75,75,0,0,1,9.72-2.42" transform="translate(-538.5 -43.37)"/><path d="M910.45,697.67,910.4,714a57.56,57.56,0,0,0-11.22,4.93l0-16.3a57.94,57.94,0,0,1,11.23-4.94" transform="translate(-538.5 -43.37)"/></g></g></g><polygon points="488.89 691.28 488.85 707.59 433.33 675.54 433.38 659.23 488.89 691.28"/><g class="cls-3"><g class="cls-41"><g class="cls-3"><path d="M1042.53,755.85l0,16.3c0-7.67-5-15.35-15.14-21.19l.05-16.3c10.11,5.84,15.16,13.52,15.14,21.19" transform="translate(-538.5 -43.37)"/></g></g></g><polygon points="360.73 659.23 360.68 675.54 268.88 728.89 268.92 712.59 360.73 659.23"/><g class="cls-3"><g class="cls-42"><g class="cls-3"><path class="cls-43" d="M1042.53,755.85l0,16.3c0,.15,0,.3,0,.45l0-16.3c0-.15,0-.3,0-.45" transform="translate(-538.5 -43.37)"/><path class="cls-44" d="M1042.52,756.3l0,16.3a17.42,17.42,0,0,1-.33,3l0-16.3a17.55,17.55,0,0,0,.34-3" transform="translate(-538.5 -43.37)"/><path class="cls-45" d="M1042.18,759.26l0,16.3a19.45,19.45,0,0,1-.84,2.9l0-16.31a17.87,17.87,0,0,0,.83-2.89" transform="translate(-538.5 -43.37)"/><path class="cls-46" d="M1041.35,762.15l0,16.31a20.25,20.25,0,0,1-1.37,2.92l0-16.3a21,21,0,0,0,1.37-2.93" transform="translate(-538.5 -43.37)"/><path class="cls-47" d="M1040,765.08l0,16.3a23.2,23.2,0,0,1-2.06,3.07l0-16.3a24.31,24.31,0,0,0,2.07-3.07" transform="translate(-538.5 -43.37)"/><path class="cls-48" d="M1037.91,768.15l0,16.3a29.84,29.84,0,0,1-3.19,3.43l0-16.31a28.8,28.8,0,0,0,3.18-3.42" transform="translate(-538.5 -43.37)"/><path class="cls-49" d="M1034.73,771.57l0,16.31a39.78,39.78,0,0,1-6.48,4.8l0-16.31a39.49,39.49,0,0,0,6.48-4.8" transform="translate(-538.5 -43.37)"/><path class="cls-50" d="M1028.25,776.37l0,16.31-.62.36.05-16.3.62-.37" transform="translate(-538.5 -43.37)"/></g></g></g><g class="cls-3"><g class="cls-51"><g class="cls-3"><path d="M807.42,756l0,16.3-.62.37,0-16.3c.2-.13.41-.25.62-.37" transform="translate(-538.5 -43.37)"/><path d="M806.8,756.33l0,16.3a39.78,39.78,0,0,0-6.48,4.8l0-16.3a39.16,39.16,0,0,1,6.49-4.8" transform="translate(-538.5 -43.37)"/><path d="M800.31,761.13l0,16.3a30.62,30.62,0,0,0-3.19,3.42l0-16.3a28.8,28.8,0,0,1,3.18-3.42" transform="translate(-538.5 -43.37)"/><path d="M797.13,764.55l0,16.3a23.87,23.87,0,0,0-2.06,3.07l0-16.3a25.05,25.05,0,0,1,2.07-3.07" transform="translate(-538.5 -43.37)"/><path d="M795.06,767.62l0,16.3a20.43,20.43,0,0,0-1.38,2.93l.05-16.3a21,21,0,0,1,1.37-2.93" transform="translate(-538.5 -43.37)"/><path d="M793.69,770.55l-.05,16.3a19.4,19.4,0,0,0-.83,2.9l.05-16.3a18,18,0,0,1,.83-2.9" transform="translate(-538.5 -43.37)"/><path d="M792.86,773.45l-.05,16.3a17.42,17.42,0,0,0-.33,3l0-16.3a17.32,17.32,0,0,1,.34-2.95" transform="translate(-538.5 -43.37)"/><path d="M792.52,776.4l0,16.3c0,.15,0,.31,0,.46l0-16.31c0-.15,0-.3,0-.45" transform="translate(-538.5 -43.37)"/></g></g></g><g class="cls-3"><g class="cls-52"><g class="cls-3"><path d="M1064.51,755.91l0,16.3c0,.22,0,.43,0,.65l0-16.3c0-.22,0-.44,0-.65" transform="translate(-538.5 -43.37)"/><path d="M1064.5,756.56l0,16.3a25.14,25.14,0,0,1-.48,4.22l0-16.3a25.26,25.26,0,0,0,.48-4.22" transform="translate(-538.5 -43.37)"/><path d="M1064,760.78l0,16.3a27.34,27.34,0,0,1-1.19,4.14l0-16.3a26.23,26.23,0,0,0,1.19-4.14" transform="translate(-538.5 -43.37)"/><path d="M1062.83,764.92l0,16.3a29.76,29.76,0,0,1-2,4.18l.05-16.31a29.57,29.57,0,0,0,1.95-4.17" transform="translate(-538.5 -43.37)"/><path d="M1060.88,769.09l-.05,16.31a34.67,34.67,0,0,1-2.95,4.38l0-16.3a34.86,34.86,0,0,0,3-4.39" transform="translate(-538.5 -43.37)"/><path d="M1057.92,773.48l0,16.3a42.1,42.1,0,0,1-4.55,4.89l.05-16.3a41.92,41.92,0,0,0,4.54-4.89" transform="translate(-538.5 -43.37)"/><path d="M1053.38,778.37l-.05,16.3a56.92,56.92,0,0,1-9.26,6.86l0-16.31a56.75,56.75,0,0,0,9.26-6.85" transform="translate(-538.5 -43.37)"/><path d="M1044.12,785.22l0,16.31-.89.52,0-16.3.89-.53" transform="translate(-538.5 -43.37)"/></g></g></g><g class="cls-3"><g class="cls-53"><g class="cls-3"><path class="cls-54" d="M807.66,798l0,16.3c-10.11-5.84-15.16-13.52-15.14-21.18l0-16.31c0,7.67,5,15.35,15.15,21.19" transform="translate(-538.5 -43.37)"/></g></g></g><g class="cls-3"><g class="cls-55"><g class="cls-3"><path d="M792.15,807.05l0,16.3C777.66,815,770.45,804,770.48,793.09l0-16.31c0,11,7.18,21.93,21.62,30.27" transform="translate(-538.5 -43.37)"/></g></g></g><polygon class="cls-56" points="489.13 733.37 489.08 749.67 397.28 803.02 397.32 786.72 489.13 733.37"/><polygon class="cls-57" points="324.67 786.72 324.63 803.02 269.11 770.97 269.16 754.67 324.67 786.72"/><polygon points="504.73 742.38 504.69 758.68 412.88 812.03 412.93 795.73 504.73 742.38"/><polygon points="309.17 795.73 309.12 812.03 253.61 779.98 253.66 763.68 309.17 795.73"/><path class="cls-58" d="M1027.39,734.66c20.09,11.6,20.2,30.48.24,42.08l-91.81,53.35c-20,11.6-52.56,11.6-72.65,0L807.66,798c-20.1-11.6-20.2-30.48-.24-42.08l91.8-53.35c20-11.6,52.55-11.61,72.65,0Z" transform="translate(-538.5 -43.37)"/><g class="cls-3"><g class="cls-59"><g class="cls-3"><path class="cls-50" d="M935.82,830.09l-.05,16.3a57.58,57.58,0,0,1-11.22,4.94L924.6,835a57.56,57.56,0,0,0,11.22-4.93" transform="translate(-538.5 -43.37)"/><path class="cls-49" d="M924.6,835l-.05,16.31a75,75,0,0,1-9.72,2.42l0-16.3A75.62,75.62,0,0,0,924.6,835" transform="translate(-538.5 -43.37)"/><path class="cls-48" d="M914.87,837.45l0,16.3q-3.24.59-6.57.91l0-16.3c2.21-.22,4.41-.53,6.56-.91" transform="translate(-538.5 -43.37)"/><path class="cls-47" d="M908.31,838.36l0,16.3c-1.89.19-3.8.32-5.71.38l.05-16.3c1.91-.07,3.82-.19,5.71-.38" transform="translate(-538.5 -43.37)"/><path class="cls-46" d="M902.6,838.74l-.05,16.3q-2.64.09-5.28,0l.05-16.31c1.76,0,3.52,0,5.28,0" transform="translate(-538.5 -43.37)"/><path class="cls-45" d="M897.32,838.76l-.05,16.31c-1.69,0-3.39-.13-5.07-.27l0-16.31c1.69.14,3.38.23,5.08.27" transform="translate(-538.5 -43.37)"/><path class="cls-44" d="M892.24,838.49l0,16.31c-1.68-.14-3.35-.33-5-.56l0-16.31c1.65.24,3.32.42,5,.56" transform="translate(-538.5 -43.37)"/><path class="cls-43" d="M887.24,837.93l0,16.31c-1.72-.25-3.42-.54-5.1-.89l0-16.3c1.68.34,3.38.64,5.1.88" transform="translate(-538.5 -43.37)"/><path class="cls-60" d="M882.14,837.05l0,16.3c-1.82-.38-3.61-.81-5.36-1.31l0-16.31q2.63.75,5.36,1.32" transform="translate(-538.5 -43.37)"/><path class="cls-61" d="M876.78,835.73l0,16.31a64,64,0,0,1-6.22-2.11l0-16.3q3,1.18,6.23,2.1" transform="translate(-538.5 -43.37)"/><path class="cls-54" d="M870.55,833.63l0,16.3a55.31,55.31,0,0,1-7.39-3.53l0-16.31a56.47,56.47,0,0,0,7.38,3.54" transform="translate(-538.5 -43.37)"/></g></g></g><g class="cls-3"><g class="cls-62"><g class="cls-3"><path d="M951.42,839.1l0,16.3a82.16,82.16,0,0,1-16,7.05l0-16.3a83,83,0,0,0,16-7" transform="translate(-538.5 -43.37)"/><path d="M935.4,846.15l0,16.3a106.41,106.41,0,0,1-13.89,3.46l0-16.31a106.14,106.14,0,0,0,13.9-3.45" transform="translate(-538.5 -43.37)"/><path d="M921.5,849.6l0,16.31c-3.08.55-6.21,1-9.37,1.3l0-16.3c3.16-.32,6.3-.75,9.37-1.31" transform="translate(-538.5 -43.37)"/><path d="M912.13,850.91l0,16.3q-4.07.4-8.16.55l0-16.31q4.11-.13,8.16-.54" transform="translate(-538.5 -43.37)"/><path d="M904,851.45l0,16.31c-2.51.08-5,.09-7.54,0l.05-16.3c2.51.06,5,0,7.53,0" transform="translate(-538.5 -43.37)"/><path d="M896.44,851.49l-.05,16.3c-2.42-.06-4.84-.19-7.24-.39l0-16.3q3.62.3,7.25.39" transform="translate(-538.5 -43.37)"/><path d="M889.19,851.1l0,16.3c-2.4-.19-4.79-.46-7.15-.8l0-16.3c2.37.34,4.75.6,7.15.8" transform="translate(-538.5 -43.37)"/><path d="M882,850.3l0,16.3c-2.46-.34-4.89-.77-7.29-1.26l0-16.3q3.6.74,7.28,1.26" transform="translate(-538.5 -43.37)"/><path d="M874.76,849l0,16.3c-2.59-.54-5.15-1.16-7.65-1.88l.05-16.3q3.75,1.07,7.65,1.88" transform="translate(-538.5 -43.37)"/><path d="M867.11,847.16l-.05,16.3c-3-.87-6-1.87-8.89-3l0-16.3q4.31,1.7,8.9,3" transform="translate(-538.5 -43.37)"/><path d="M858.21,844.16l0,16.3a79,79,0,0,1-10.55-5.06l0-16.3a80.73,80.73,0,0,0,10.54,5.06" transform="translate(-538.5 -43.37)"/></g></g></g><path d="M1042.89,725.65c28.7,16.57,28.85,43.53.34,60.1L951.42,839.1c-28.51,16.57-75,16.57-103.75,0l-55.52-32.05c-28.7-16.57-28.85-43.53-.34-60.1l91.8-53.36c28.52-16.56,75.07-16.56,103.77,0ZM935.82,830.09l91.81-53.35c20-11.6,19.85-30.48-.24-42.08l-55.52-32c-20.1-11.61-52.68-11.6-72.65,0L807.42,756c-20,11.6-19.86,30.48.24,42.08l55.51,32.05c20.09,11.6,52.69,11.6,72.65,0" transform="translate(-538.5 -43.37)"/></g><g class="cls-3"><polygon class="cls-63" points="660.16 618.74 641.13 629.8 621.97 618.75 641 607.69 660.16 618.74"/><polygon class="cls-64" points="660.16 618.74 660.04 659.5 641.01 670.56 641.13 629.8 660.16 618.74"/><polygon class="cls-65" points="641.13 629.8 641.01 670.56 621.86 659.5 621.97 618.75 641.13 629.8"/></g><g class="cls-3"><polygon class="cls-4" points="793.28 711.82 793.38 746.87 730.96 782.91 730.86 747.86 793.28 711.82"/><polygon class="cls-5" points="730.96 782.91 695.72 762.43 695.62 727.38 730.86 747.86 730.96 782.91"/><polygon class="cls-6" points="730.86 747.86 695.62 727.38 758.04 691.34 793.28 711.82 730.86 747.86"/></g><g class="cls-3"><polygon class="cls-4" points="820.92 242.53 822.16 678.64 736.32 728.2 735.09 292.09 820.92 242.53"/><polygon class="cls-5" points="736.32 728.2 701.08 707.72 699.85 271.61 735.09 292.09 736.32 728.2"/><polygon class="cls-6" points="735.09 292.09 699.85 271.61 785.68 222.05 820.92 242.53 735.09 292.09"/></g><g class="cls-3"><polygon class="cls-66" points="432.75 495.9 388.35 521.71 354.3 502.05 398.7 476.25 432.75 495.9"/><polygon class="cls-67" points="432.75 495.9 432.7 512.21 388.3 538.01 388.35 521.71 432.75 495.9"/><polygon class="cls-68" points="388.35 521.71 388.3 538.01 354.25 518.35 354.3 502.05 388.35 521.71"/></g><g class="cls-3"><polygon class="cls-69" points="292.52 528.14 292.79 622.7 197.73 677.59 197.46 583.03 292.52 528.14"/><polygon class="cls-70" points="197.73 677.59 162.49 657.11 162.22 562.55 197.46 583.03 197.73 677.59"/><polygon class="cls-71" points="197.46 583.03 162.22 562.55 257.28 507.66 292.52 528.14 197.46 583.03"/></g><g class="cls-3"><polygon class="cls-69" points="327.64 548.45 327.66 557.41 232.61 612.29 232.58 603.33 327.64 548.45"/><polygon class="cls-70" points="232.61 612.29 197.37 591.81 197.34 582.85 232.58 603.33 232.61 612.29"/><polygon class="cls-71" points="232.58 603.33 197.34 582.85 292.4 527.97 327.64 548.45 232.58 603.33"/></g><g class="cls-3"><polygon class="cls-67" points="268.24 484.18 268.38 533.09 203.11 570.77 202.98 521.86 268.24 484.18"/><polygon class="cls-72" points="203.11 570.77 196.77 567.08 196.63 518.17 202.98 521.86 203.11 570.77"/><polygon class="cls-73" points="202.98 521.86 196.63 518.17 261.9 480.49 268.24 484.18 202.98 521.86"/></g><polygon points="262.56 496.06 262.65 529.48 209.45 560.2 209.35 526.77 262.56 496.06"/><g class="cls-3"><polygon class="cls-68" points="247.68 575.08 247.67 577.53 227.1 565.65 227.1 563.21 247.68 575.08"/><polygon class="cls-67" points="247.68 575.08 282.91 554.6 282.91 557.05 247.67 577.53 247.68 575.08"/><polygon class="cls-66" points="227.1 563.21 262.34 542.73 282.91 554.6 247.68 575.08 227.1 563.21"/></g><polygon class="cls-74" points="220.04 525.95 220.05 529.21 212.96 533.3 212.95 530.04 220.04 525.95"/><polygon class="cls-74" points="224.06 523.38 224.07 526.64 221.94 527.87 221.93 524.61 224.06 523.38"/><polygon class="cls-74" points="228.06 521.38 228.07 524.64 225.94 525.87 225.93 522.61 228.06 521.38"/><polygon class="cls-74" points="228.45 527.51 228.46 529.14 213.56 537.74 213.55 536.11 228.45 527.51"/><polygon class="cls-74" points="223.61 535.24 223.62 537.69 214.39 543.01 214.38 540.57 223.61 535.24"/><g class="cls-3"><g class="cls-3"><g class="cls-75"><g class="cls-3"><path class="cls-76" d="M844.11,671.16,844,711.91V712l.11-40.76v-.11" transform="translate(-538.5 -43.37)"/><path class="cls-77" d="M844.11,671.27,844,712a5,5,0,0,1-.09.77L844,672a4.91,4.91,0,0,0,.09-.77" transform="translate(-538.5 -43.37)"/><path class="cls-78" d="M844,672l-.11,40.76a4.25,4.25,0,0,1-.22.75l.12-40.76A5.26,5.26,0,0,0,844,672" transform="translate(-538.5 -43.37)"/><path class="cls-79" d="M843.81,672.79l-.12,40.76a4.71,4.71,0,0,1-.35.76l.11-40.76a5.84,5.84,0,0,0,.36-.76" transform="translate(-538.5 -43.37)"/><path class="cls-80" d="M843.45,673.55l-.11,40.76a8,8,0,0,1-.54.8l.11-40.76a5.62,5.62,0,0,0,.54-.8" transform="translate(-538.5 -43.37)"/><path class="cls-81" d="M842.91,674.35l-.11,40.76a7.62,7.62,0,0,1-.83.89l.11-40.76a6.26,6.26,0,0,0,.83-.89" transform="translate(-538.5 -43.37)"/><path class="cls-82" d="M842.08,675.24,842,716a10,10,0,0,1-1.7,1.26l.12-40.76a9.91,9.91,0,0,0,1.69-1.26" transform="translate(-538.5 -43.37)"/><path class="cls-83" d="M840.39,676.5l-.12,40.76-.16.09.12-40.75.16-.1" transform="translate(-538.5 -43.37)"/></g></g></g><g class="cls-3"><g class="cls-84"><g class="cls-3"><path class="cls-85" d="M821,676.59l-.12,40.76c-2.63-1.52-4-3.52-3.94-5.51l.11-40.76c0,2,1.31,4,4,5.51" transform="translate(-538.5 -43.37)"/></g></g></g><polygon class="cls-64" points="301.73 633.22 301.61 673.98 301.43 674.09 301.54 633.33 301.73 633.22"/><polygon class="cls-65" points="282.64 633.33 282.52 674.08 282.34 673.98 282.45 633.22 282.64 633.33"/><path class="cls-63" d="M840.16,665.64c5.25,3,5.27,7.93.07,11l-.19.1c-5.2,3-13.66,3-18.91,0l-.18-.11c-5.24-3-5.26-7.92-.06-11l.18-.1c5.21-3,13.67-3,18.91,0Z" transform="translate(-538.5 -43.37)"/><g class="cls-3"><g class="cls-86"><g class="cls-3"><path class="cls-83" d="M840,676.7l-.11,40.76a14.94,14.94,0,0,1-2.93,1.29l.11-40.76A14.94,14.94,0,0,0,840,676.7" transform="translate(-538.5 -43.37)"/><path class="cls-82" d="M837.11,678,837,718.75a20.33,20.33,0,0,1-2.53.63l.11-40.76a19.9,19.9,0,0,0,2.53-.63" transform="translate(-538.5 -43.37)"/><path class="cls-81" d="M834.58,678.62l-.11,40.76c-.56.1-1.13.18-1.71.23l.12-40.75c.58-.06,1.14-.14,1.7-.24" transform="translate(-538.5 -43.37)"/><path class="cls-80" d="M832.88,678.86l-.12,40.75c-.49,0-1,.09-1.48.1L831.4,679c.49,0,1-.05,1.48-.1" transform="translate(-538.5 -43.37)"/><path class="cls-79" d="M831.4,679l-.12,40.75c-.45,0-.91,0-1.37,0L830,679h1.37" transform="translate(-538.5 -43.37)"/><path class="cls-78" d="M830,679l-.12,40.76c-.44,0-.88,0-1.31-.07l.11-40.76c.44,0,.88.06,1.32.07" transform="translate(-538.5 -43.37)"/><path class="cls-77" d="M828.71,678.89l-.11,40.76c-.44,0-.87-.08-1.3-.15l.11-40.75c.43.06.87.11,1.3.14" transform="translate(-538.5 -43.37)"/><path class="cls-76" d="M827.41,678.75l-.11,40.75c-.45-.06-.89-.14-1.33-.23l.12-40.75c.43.09.87.16,1.32.23" transform="translate(-538.5 -43.37)"/><path class="cls-87" d="M826.09,678.52,826,719.27c-.47-.09-.94-.21-1.4-.34l.12-40.76c.46.13.92.25,1.4.35" transform="translate(-538.5 -43.37)"/><path class="cls-88" d="M824.69,678.17l-.12,40.76c-.55-.16-1.1-.34-1.62-.55l.12-40.76a16.21,16.21,0,0,0,1.62.55" transform="translate(-538.5 -43.37)"/><path class="cls-85" d="M823.07,677.62,823,718.38a14.31,14.31,0,0,1-1.93-.92l.11-40.76a13.82,13.82,0,0,0,1.94.92" transform="translate(-538.5 -43.37)"/></g></g></g></g><g class="cls-3"><polygon class="cls-89" points="294.69 644.44 294.68 648.51 259.21 628.03 259.22 623.96 294.69 644.44"/><polygon class="cls-90" points="294.69 644.44 339.8 618.22 339.79 622.3 294.68 648.51 294.69 644.44"/><polygon class="cls-91" points="259.22 623.96 304.32 597.74 339.8 618.22 294.69 644.44 259.22 623.96"/></g><g class="cls-3"><polygon class="cls-92" points="298.42 633.18 290.67 637.69 256.62 618.03 264.37 613.52 298.42 633.18"/><polygon class="cls-93" points="298.42 633.18 298.39 646.22 290.63 650.73 290.67 637.69 298.42 633.18"/><polygon class="cls-94" points="290.67 637.69 290.63 650.73 256.58 631.07 256.62 618.03 290.67 637.69"/></g><g class="cls-3"><polygon class="cls-93" points="341.1 569.92 341.25 626.16 295.14 652.79 294.98 596.55 341.1 569.92"/><polygon class="cls-95" points="295.14 652.79 290.91 650.33 290.75 594.09 294.98 596.55 295.14 652.79"/><polygon class="cls-92" points="294.98 596.55 290.75 594.09 336.87 567.46 341.1 569.92 294.98 596.55"/></g><g class="cls-3"><polygon class="cls-96" points="107 690.16 103.62 681.66 103.53 649.04 106.89 651.03 107 690.16"/><polygon class="cls-97" points="106.89 651.03 103.53 649.04 131.91 632.66 140.94 631.37 106.89 651.03"/><polygon class="cls-95" points="134.06 705.88 107 690.16 106.89 651.03 133.95 666.75 134.06 705.88"/><polygon class="cls-92" points="133.95 666.75 106.89 651.03 140.94 631.37 168 647.09 133.95 666.75"/><polygon class="cls-93" points="171.38 655.6 171.47 688.21 143.09 704.59 143 671.98 171.38 655.6"/><polygon class="cls-98" points="143.09 704.59 134.06 705.88 133.95 666.75 143 671.98 143.09 704.59"/><polygon class="cls-99" points="143 671.98 133.95 666.75 168 647.09 171.38 655.6 143 671.98"/></g><g class="cls-3"><polygon class="cls-7" points="35.77 641.94 35.47 746.28 0 725.8 0.3 621.46 35.77 641.94"/><polygon class="cls-4" points="35.77 641.94 71.01 621.46 70.71 725.8 35.47 746.28 35.77 641.94"/><polygon class="cls-8" points="0.3 621.46 35.54 600.98 71.01 621.46 35.77 641.94 0.3 621.46"/></g><g class="cls-3"><polygon class="cls-7" points="49.05 251.3 48.19 552.91 12.72 532.43 13.57 230.82 49.05 251.3"/><polygon class="cls-4" points="49.05 251.3 84.28 230.82 83.43 532.43 48.19 552.91 49.05 251.3"/><polygon class="cls-8" points="13.57 230.82 48.81 210.34 84.28 230.82 49.05 251.3 13.57 230.82"/></g></g><g id="Layer_4" data-name="Layer 4"><g class="cls-3"><polygon class="cls-68" points="286.65 553.5 286.64 555.13 278.13 550.21 278.13 548.58 286.65 553.5"/><polygon class="cls-67" points="286.65 553.5 290.88 551.04 290.87 552.67 286.64 555.13 286.65 553.5"/><polygon class="cls-66" points="278.13 548.58 282.36 546.13 290.88 551.04 286.65 553.5 278.13 548.58"/></g></g></svg>